<svg width="40" height="40" viewBox="0 0 40 40" fill="none" xmlns="http://www.w3.org/2000/svg">
<path d="M10.0001 36.6667C9.11603 36.6667 8.26818 36.3155 7.64306 35.6904C7.01794 35.0653 6.66675 34.2174 6.66675 33.3334V6.66671C6.66675 5.78266 7.01794 4.93481 7.64306 4.30969C8.26818 3.68457 9.11603 3.33338 10.0001 3.33338H23.3334C23.861 3.33252 24.3836 3.43605 24.871 3.63799C25.3584 3.83994 25.801 4.13631 26.1734 4.51005L32.1534 10.49C32.5281 10.8626 32.8254 11.3056 33.0279 11.7936C33.2304 12.2817 33.3343 12.805 33.3334 13.3334V33.3334C33.3334 34.2174 32.9822 35.0653 32.3571 35.6904C31.732 36.3155 30.8841 36.6667 30.0001 36.6667H10.0001Z" stroke="white" stroke-width="3.33333" stroke-linecap="round" stroke-linejoin="round"/>
<path d="M23.3335 3.33337V11.6667C23.3335 12.1087 23.5091 12.5327 23.8217 12.8452C24.1342 13.1578 24.5581 13.3334 25.0002 13.3334H33.3335M16.6668 15H13.3335M26.6668 21.6667H13.3335M26.6668 28.3334H13.3335" stroke="white" stroke-width="3.33333" stroke-linecap="round" stroke-linejoin="round"/>
</svg>
