<svg width="40" height="40" viewBox="0 0 40 40" fill="none" xmlns="http://www.w3.org/2000/svg">
<path d="M26.6666 33.3334V6.66671C26.6666 5.78265 26.3154 4.93481 25.6903 4.30968C25.0652 3.68456 24.2173 3.33337 23.3333 3.33337H16.6666C15.7825 3.33337 14.9347 3.68456 14.3096 4.30968C13.6844 4.93481 13.3333 5.78265 13.3333 6.66671V33.3334" stroke="white" stroke-width="3.33333" stroke-linecap="round" stroke-linejoin="round"/>
<path d="M33.3333 10H6.66659C4.82564 10 3.33325 11.4924 3.33325 13.3333V30C3.33325 31.8409 4.82564 33.3333 6.66659 33.3333H33.3333C35.1742 33.3333 36.6666 31.8409 36.6666 30V13.3333C36.6666 11.4924 35.1742 10 33.3333 10Z" stroke="white" stroke-width="3.33333" stroke-linecap="round" stroke-linejoin="round"/>
</svg>
