<svg width="24" height="24" viewBox="0 0 24 24" fill="none" xmlns="http://www.w3.org/2000/svg">
<path fill-rule="evenodd" clip-rule="evenodd" d="M7.47349 3H13.1777C14.7036 3 15.9349 3 16.9027 3.12764C17.9074 3.25855 18.7535 3.54218 19.4255 4.19782C20.0439 4.80327 20.3375 5.55273 20.486 6.43418C21.389 6.57818 22.1548 6.86618 22.7743 7.47055C23.4463 8.12727 23.7343 8.95418 23.8705 9.936C24 10.8818 24 12.0851 24 13.5764V13.6964C24 15.1876 24 16.3909 23.8705 17.3367C23.7354 18.3185 23.4463 19.1455 22.7743 19.8022C22.1023 20.4589 21.2562 20.7404 20.2515 20.8735C19.2837 21 18.0525 21 16.5265 21H10.8223C9.29637 21 8.06512 21 7.09842 20.8735C6.09377 20.7404 5.24763 20.4589 4.57563 19.8022C3.95609 19.1967 3.66251 18.4473 3.51516 17.5658C2.61098 17.4207 1.84521 17.1338 1.22679 16.5295C0.553674 15.8727 0.265674 15.0458 0.130605 14.064C-1.66339e-08 13.1182 0 11.9149 0 10.4236V10.3036C0 8.81236 -1.66339e-08 7.60909 0.130605 6.66327C0.264558 5.68145 0.554791 4.85455 1.22567 4.19782C1.89767 3.54109 2.74381 3.25964 3.74847 3.12764C4.71628 3 5.94754 3 7.47349 3ZM5.25209 17.7076C5.37042 18.1462 5.53674 18.4276 5.75888 18.6447C6.06809 18.9469 6.50233 19.1433 7.32167 19.2513C8.16447 19.3625 9.28186 19.3636 10.8837 19.3636H16.4651C18.0681 19.3636 19.1855 19.3615 20.0283 19.2513C20.8476 19.1433 21.2807 18.9458 21.5911 18.6447C21.8992 18.3425 22.1012 17.9193 22.2106 17.1175C22.3245 16.2949 22.3256 15.2029 22.3256 13.6375C22.3256 12.072 22.3245 10.9789 22.2106 10.1542C22.1012 9.35345 21.8992 8.93018 21.59 8.628C21.3667 8.40982 21.0809 8.24727 20.63 8.13273C20.6512 8.77636 20.6512 9.49745 20.6512 10.3036V10.4236C20.6512 11.9149 20.6512 13.1182 20.5217 14.064C20.3855 15.0458 20.0975 15.8727 19.4255 16.5295C18.7535 17.1862 17.9074 17.4676 16.9027 17.6007C15.9349 17.7273 14.7036 17.7273 13.1777 17.7273H7.47349C6.64856 17.7273 5.9107 17.7273 5.25209 17.7076ZM3.97284 4.74873C3.15349 4.85673 2.72037 5.05418 2.41116 5.35527C2.10195 5.65745 1.90102 6.08073 1.79051 6.88255C1.67777 7.70509 1.67553 8.79818 1.67553 10.3636C1.67553 11.9291 1.67777 13.0222 1.79051 13.8458C1.90102 14.6465 2.10307 15.0698 2.41116 15.372C2.72037 15.6742 3.15349 15.8705 3.97395 15.9785C4.81563 16.0887 5.93414 16.0909 7.536 16.0909H13.1174C14.7193 16.0909 15.8378 16.0887 16.6806 15.9785C17.4999 15.8705 17.933 15.6731 18.2422 15.372C18.5514 15.0698 18.7524 14.6465 18.8629 13.8447C18.9756 13.0211 18.9779 11.9291 18.9779 10.3636C18.9779 8.79818 18.9756 7.70509 18.8629 6.88145C18.7524 6.08073 18.5503 5.65745 18.2422 5.35527C17.933 5.05309 17.4999 4.85673 16.6794 4.74873C15.8378 4.63855 14.7193 4.63636 13.1174 4.63636H7.53488C5.93302 4.63636 4.81563 4.63855 3.97284 4.74873ZM10.3256 8.45455C9.80748 8.45455 9.31061 8.65568 8.94426 9.0137C8.57791 9.37173 8.37209 9.85731 8.37209 10.3636C8.37209 10.87 8.57791 11.3555 8.94426 11.7136C9.31061 12.0716 9.80748 12.2727 10.3256 12.2727C10.8437 12.2727 11.3406 12.0716 11.7069 11.7136C12.0733 11.3555 12.2791 10.87 12.2791 10.3636C12.2791 9.85731 12.0733 9.37173 11.7069 9.0137C11.3406 8.65568 10.8437 8.45455 10.3256 8.45455ZM6.69767 10.3636C6.69767 9.42332 7.0799 8.52152 7.76026 7.85662C8.44063 7.19172 9.3634 6.81818 10.3256 6.81818C11.2878 6.81818 12.2105 7.19172 12.8909 7.85662C13.5713 8.52152 13.9535 9.42332 13.9535 10.3636C13.9535 11.3039 13.5713 12.2057 12.8909 12.8707C12.2105 13.5356 11.2878 13.9091 10.3256 13.9091C9.3634 13.9091 8.44063 13.5356 7.76026 12.8707C7.0799 12.2057 6.69767 11.3039 6.69767 10.3636ZM4.18605 7.36364C4.40809 7.36364 4.62104 7.44984 4.77804 7.60328C4.93505 7.75672 5.02326 7.96482 5.02326 8.18182V12.5455C5.02326 12.7625 4.93505 12.9706 4.77804 13.124C4.62104 13.2774 4.40809 13.3636 4.18605 13.3636C3.964 13.3636 3.75106 13.2774 3.59405 13.124C3.43704 12.9706 3.34884 12.7625 3.34884 12.5455V8.18182C3.34884 7.96482 3.43704 7.75672 3.59405 7.60328C3.75106 7.44984 3.964 7.36364 4.18605 7.36364ZM16.4651 7.36364C16.6872 7.36364 16.9001 7.44984 17.0571 7.60328C17.2141 7.75672 17.3023 7.96482 17.3023 8.18182V12.5455C17.3023 12.7625 17.2141 12.9706 17.0571 13.124C16.9001 13.2774 16.6872 13.3636 16.4651 13.3636C16.2431 13.3636 16.0301 13.2774 15.8731 13.124C15.7161 12.9706 15.6279 12.7625 15.6279 12.5455V8.18182C15.6279 7.96482 15.7161 7.75672 15.8731 7.60328C16.0301 7.44984 16.2431 7.36364 16.4651 7.36364Z" fill="#1E1E1E"/>
</svg>
