<svg width="16" height="16" viewBox="0 0 16 16" fill="none" xmlns="http://www.w3.org/2000/svg">
<path d="M4.62427 15.4C4.20038 15.4 3.83738 15.2491 3.53526 14.9472C3.23314 14.6454 3.08233 14.283 3.08285 13.86C3.08285 13.4365 3.23391 13.0738 3.53603 12.772C3.83815 12.4701 4.20089 12.3195 4.62427 12.32C5.04816 12.32 5.41117 12.4709 5.71329 12.7728C6.01541 13.0746 6.16621 13.437 6.1657 13.86C6.1657 14.2835 6.01464 14.6462 5.71252 14.948C5.4104 15.2498 5.04765 15.4005 4.62427 15.4ZM12.3314 15.4C11.9075 15.4 11.5445 15.2491 11.2424 14.9472C10.9403 14.6454 10.7895 14.283 10.79 13.86C10.79 13.4365 10.941 13.0738 11.2431 12.772C11.5453 12.4701 11.908 12.3195 12.3314 12.32C12.7553 12.32 13.1183 12.4709 13.4204 12.7728C13.7225 13.0746 13.8733 13.437 13.8728 13.86C13.8728 14.2835 13.7218 14.6462 13.4196 14.948C13.1175 15.2498 12.7548 15.4005 12.3314 15.4ZM3.23699 1.54H14.605C14.9004 1.54 15.1252 1.67167 15.2794 1.93501C15.4335 2.19835 15.4399 2.46451 15.2986 2.7335L12.5626 7.6615C12.4213 7.91817 12.2317 8.11708 11.9938 8.25825C11.7559 8.39942 11.4959 8.47 11.2139 8.47H5.47206L4.62427 10.01H13.8728V11.55H4.62427C4.04624 11.55 3.6095 11.2964 3.31406 10.7892C3.01862 10.2821 3.00578 9.77849 3.27553 9.2785L4.31599 7.392L1.54142 1.54H0V0H2.50481L3.23699 1.54Z" fill="#002E74"/>
</svg>
