<svg width="20" height="20" viewBox="0 0 20 20" fill="none" xmlns="http://www.w3.org/2000/svg">
<path d="M12.9525 7.93084C13.0116 7.87191 13.0582 7.80176 13.0897 7.72453C13.1212 7.64729 13.1369 7.56453 13.1359 7.48113C13.1349 7.39772 13.1173 7.31536 13.0839 7.23889C13.0506 7.16242 13.0023 7.0934 12.9419 7.03588C12.8815 6.97836 12.8102 6.93352 12.7322 6.90399C12.6542 6.87447 12.5711 6.86086 12.4877 6.86396C12.4044 6.86706 12.3225 6.88682 12.2469 6.92206C12.1713 6.95731 12.1035 7.00733 12.0475 7.06917L10.1192 9.09417L9.6192 8.56917C9.56323 8.50733 9.49545 8.45731 9.41985 8.42206C9.34425 8.38682 9.26237 8.36706 9.17901 8.36396C9.09566 8.36085 9.01253 8.37447 8.93452 8.40399C8.85651 8.43352 8.7852 8.47836 8.72479 8.53588C8.66438 8.5934 8.6161 8.66242 8.58278 8.73889C8.54947 8.81536 8.53179 8.89772 8.53081 8.98113C8.52982 9.06453 8.54554 9.14729 8.57703 9.22453C8.60853 9.30176 8.65516 9.37191 8.71419 9.43084L9.6667 10.4308C9.72507 10.4921 9.79527 10.5409 9.87305 10.5742C9.95083 10.6075 10.0346 10.6247 10.1192 10.6247C10.2038 10.6247 10.2876 10.6075 10.3653 10.5742C10.4431 10.5409 10.5133 10.4921 10.5717 10.4308L12.9525 7.93084Z" fill="#FEB052"/>
<path fill-rule="evenodd" clip-rule="evenodd" d="M1.07754 2.29254C1.13249 2.13619 1.24728 2.00806 1.39668 1.93633C1.54607 1.8646 1.71784 1.85514 1.87421 1.91004L2.12504 1.99837C2.63921 2.1792 3.07504 2.33254 3.41921 2.50087C3.78588 2.6817 4.10088 2.90337 4.33754 3.25004C4.57254 3.59337 4.67004 3.97087 4.71421 4.38504L4.72338 4.47504H14.2667C14.9492 4.47504 15.6442 4.47504 16.2167 4.5392C16.5084 4.5717 16.7975 4.62337 17.0525 4.71337C17.3025 4.80087 17.5784 4.94504 17.7742 5.20004C18.0925 5.61337 18.1484 6.09504 18.1184 6.58337C18.0892 7.04837 17.9742 7.6267 17.8367 8.3142L17.8284 8.35837L17.8267 8.3617L17.4034 10.42C17.2784 11.025 17.1734 11.5342 17.0375 11.9367C16.8942 12.3617 16.6959 12.7367 16.34 13.0267C15.9842 13.3159 15.5767 13.435 15.1309 13.49C14.71 13.5417 14.1892 13.5417 13.5725 13.5417H9.06671C7.94588 13.5417 7.03754 13.5417 6.32254 13.44C5.57504 13.3342 4.94754 13.1067 4.45338 12.585C3.99754 12.105 3.75421 11.595 3.63254 10.8834C3.51838 10.2167 3.50754 9.34337 3.50754 8.13337V5.86504C3.50754 5.24837 3.50588 4.83587 3.47171 4.5192C3.43838 4.2167 3.38088 4.06504 3.30504 3.95504C3.23254 3.84754 3.12171 3.7467 2.86838 3.62337C2.59921 3.4917 2.23338 3.3617 1.67671 3.16587L1.46004 3.09004C1.38246 3.06292 1.31098 3.02076 1.2497 2.96598C1.18843 2.9112 1.13856 2.84488 1.10295 2.7708C1.06735 2.69672 1.0467 2.61635 1.0422 2.53428C1.0377 2.45222 1.05026 2.37007 1.07754 2.29254ZM4.75671 5.72504V8.13337C4.75671 9.3742 4.77171 10.1317 4.86504 10.6725C4.94921 11.1684 5.09338 11.4434 5.36004 11.725C5.58754 11.965 5.90171 12.1184 6.49754 12.2025C7.11421 12.29 7.93421 12.2917 9.11421 12.2917H13.5342C14.2 12.2917 14.6425 12.2909 14.9792 12.25C15.2975 12.2109 15.4459 12.1425 15.55 12.0575C15.6542 11.9725 15.75 11.8409 15.8534 11.5367C15.9617 11.2159 16.0517 10.7825 16.1867 10.13L16.6017 8.11337V8.1117C16.75 7.37004 16.8475 6.8767 16.87 6.5067C16.8917 6.15504 16.8367 6.03254 16.7859 5.96504C16.741 5.9329 16.6912 5.9084 16.6384 5.89254C16.4562 5.83538 16.2685 5.79794 16.0784 5.78087C15.5825 5.72587 14.9542 5.72504 14.2409 5.72504H4.75671ZM4.37504 16.25C4.37504 16.7473 4.57259 17.2242 4.92422 17.5759C5.27585 17.9275 5.75276 18.125 6.25004 18.125C6.74732 18.125 7.22424 17.9275 7.57587 17.5759C7.9275 17.2242 8.12504 16.7473 8.12504 16.25C8.12504 15.7528 7.9275 15.2758 7.57587 14.9242C7.22424 14.5726 6.74732 14.375 6.25004 14.375C5.75276 14.375 5.27585 14.5726 4.92422 14.9242C4.57259 15.2758 4.37504 15.7528 4.37504 16.25ZM6.25004 16.875C6.08428 16.875 5.92531 16.8092 5.8081 16.692C5.69089 16.5748 5.62504 16.4158 5.62504 16.25C5.62504 16.0843 5.69089 15.9253 5.8081 15.8081C5.92531 15.6909 6.08428 15.625 6.25004 15.625C6.4158 15.625 6.57478 15.6909 6.69199 15.8081C6.8092 15.9253 6.87504 16.0843 6.87504 16.25C6.87504 16.4158 6.8092 16.5748 6.69199 16.692C6.57478 16.8092 6.4158 16.875 6.25004 16.875ZM11.875 16.25C11.875 16.4963 11.9235 16.7401 12.0178 16.9676C12.112 17.1951 12.2501 17.4018 12.4242 17.5759C12.5983 17.75 12.805 17.8881 13.0325 17.9823C13.26 18.0765 13.5038 18.125 13.75 18.125C13.9963 18.125 14.2401 18.0765 14.4676 17.9823C14.6951 17.8881 14.9018 17.75 15.0759 17.5759C15.25 17.4018 15.3881 17.1951 15.4823 16.9676C15.5765 16.7401 15.625 16.4963 15.625 16.25C15.625 15.7528 15.4275 15.2758 15.0759 14.9242C14.7242 14.5726 14.2473 14.375 13.75 14.375C13.2528 14.375 12.7759 14.5726 12.4242 14.9242C12.0726 15.2758 11.875 15.7528 11.875 16.25ZM13.75 16.875C13.5843 16.875 13.4253 16.8092 13.3081 16.692C13.1909 16.5748 13.125 16.4158 13.125 16.25C13.125 16.0843 13.1909 15.9253 13.3081 15.8081C13.4253 15.6909 13.5843 15.625 13.75 15.625C13.9158 15.625 14.0748 15.6909 14.192 15.8081C14.3092 15.9253 14.375 16.0843 14.375 16.25C14.375 16.4158 14.3092 16.5748 14.192 16.692C14.0748 16.8092 13.9158 16.875 13.75 16.875Z" fill="#FEB052"/>
</svg>
