<svg width="20" height="14" viewBox="0 0 20 14" fill="none" xmlns="http://www.w3.org/2000/svg">
<path d="M9.52 0C4.78951 0 0 1.54153 0 4.48698C0 7.43243 4.78951 8.97396 9.52 8.97396C14.2514 8.97396 19.04 7.43243 19.04 4.48698C19.04 1.54153 14.2514 0 9.52 0ZM4.76 9.90924V12.9006C5.93762 13.1987 7.23996 13.3812 8.568 13.44V10.4487C7.28516 10.3963 6.01003 10.2157 4.76 9.90924ZM10.472 10.4477V13.439C11.7549 13.3877 13.0302 13.2071 14.28 12.8996V9.90825C13.0302 10.2157 11.7549 10.3964 10.472 10.4477ZM16.184 9.2701V12.2614C17.8986 11.5086 19.04 10.4098 19.04 8.97396V5.98264C19.04 7.41847 17.8986 8.51728 16.184 9.2701ZM2.856 12.2614V9.2701C1.1424 8.51728 0 7.41748 0 5.98264V8.97396C0 10.4088 1.1424 11.5086 2.856 12.2614Z" fill="#002E74"/>
</svg>
