<svg width="14" height="14" viewBox="0 0 14 14" fill="none" xmlns="http://www.w3.org/2000/svg">
<path d="M0 0.933333C0 0.417083 0.391016 0 0.875 0H3.0625C5.23633 0 7 1.88125 7 4.2C7 5.915 6.0375 7.38792 4.65664 8.04125L6.06211 11.7863C6.24258 12.2646 6.02383 12.8071 5.57539 12.9996C5.12695 13.1921 4.61836 12.9587 4.43789 12.4804L2.90664 8.4H1.75V12.1333C1.75 12.6496 1.35898 13.0667 0.875 13.0667C0.391016 13.0667 0 12.6496 0 12.1333V0.933333ZM1.75 6.53333H3.0625C4.27109 6.53333 5.25 5.48917 5.25 4.2C5.25 2.91083 4.27109 1.86667 3.0625 1.86667H1.75V6.53333ZM8.75 3.73333H10.9375C12.6301 3.73333 14 5.19458 14 7C14 8.80542 12.6301 10.2667 10.9375 10.2667H9.625V13.0667C9.625 13.5829 9.23398 14 8.75 14C8.26602 14 7.875 13.5829 7.875 13.0667V4.66667C7.875 4.15042 8.26602 3.73333 8.75 3.73333ZM10.9375 8.4C11.6621 8.4 12.25 7.77292 12.25 7C12.25 6.22708 11.6621 5.6 10.9375 5.6H9.625V8.4H10.9375Z" fill="#002E74"/>
</svg>
