<svg width="40" height="40" viewBox="0 0 40 40" fill="none" xmlns="http://www.w3.org/2000/svg">
<path d="M19.9999 24.9583C19.7777 24.9583 19.5694 24.9238 19.3749 24.855C19.1805 24.7861 18.9999 24.6677 18.8333 24.5L11.1666 16.8333C10.861 16.5277 10.7083 16.1388 10.7083 15.6666C10.7083 15.1944 10.861 14.8055 11.1666 14.5C11.4721 14.1944 11.861 14.0416 12.3333 14.0416C12.8055 14.0416 13.1944 14.1944 13.4999 14.5L19.9999 21L26.4999 14.5C26.8055 14.1944 27.1944 14.0416 27.6666 14.0416C28.1388 14.0416 28.5277 14.1944 28.8332 14.5C29.1388 14.8055 29.2916 15.1944 29.2916 15.6666C29.2916 16.1388 29.1388 16.5277 28.8332 16.8333L21.1666 24.5C20.9999 24.6666 20.8194 24.785 20.6249 24.855C20.4305 24.925 20.2221 24.9594 19.9999 24.9583Z" fill="#1E1E1E"/>
</svg>
